<svg xmlns="http://www.w3.org/2000/svg" width="1600" height="1200" viewBox="0 0 1600 1200">
<defs>
  <linearGradient id="bg" x2="0" y2="1"><stop stop-color="#101914"/><stop offset="1" stop-color="#060908"/></linearGradient>
  <linearGradient id="jungle" x2="1" y2="1"><stop stop-color="#1d4831"/><stop offset=".55" stop-color="#0b241a"/><stop offset="1" stop-color="#03110d"/></linearGradient>
  <linearGradient id="amber" x2="0" y2="1"><stop stop-color="#ffe28a"/><stop offset="1" stop-color="#c46a24"/></linearGradient>
  <linearGradient id="teal" x2="1" y2="1"><stop stop-color="#39e6cd"/><stop offset="1" stop-color="#145f80"/></linearGradient>
  <pattern id="grid" width="26" height="26" patternUnits="userSpaceOnUse"><path d="M26 0H0V26" fill="none" stroke="#8ee2c0" stroke-opacity=".12"/></pattern>
  <filter id="glow"><feGaussianBlur stdDeviation="7" result="b"/><feMerge><feMergeNode in="b"/><feMergeNode in="SourceGraphic"/></feMerge></filter>
  <style>text{font-family:Inter,Arial,'PingFang SC','Microsoft YaHei',sans-serif} .title{font-size:28px;font-weight:800;fill:#f6f2dc}.sub{font-size:16px;fill:#b7cbb4}.tag{font-size:15px;font-weight:700;letter-spacing:1px}.small{font-size:13px;fill:#d7e2cf}</style>
</defs>
<rect width="1600" height="1200" fill="url(#bg)"/>
<text x="70" y="72" class="title" font-size="38">LOST ISLE — STYLE EXPLORATION BOARD</text>
<text x="70" y="105" class="sub">6 个可落地方向｜每格 = 建模语言 + 材质/光照 + HUD 语言</text>

<!-- card helper backgrounds -->
<g transform="translate(55 145)">
 <rect width="470" height="450" rx="18" fill="#16241c" stroke="#9d6a38" stroke-width="2"/>
 <rect x="18" y="18" width="434" height="236" rx="12" fill="url(#jungle)"/>
 <circle cx="360" cy="88" r="58" fill="#f7b968" opacity=".32" filter="url(#glow)"/>
 <path d="M18 210 Q90 130 170 207T340 190T452 211V254H18Z" fill="#06120d"/>
 <path d="M36 215L52 132 74 215M108 216L131 110 156 216M393 216L417 120 438 216" stroke="#31573c" stroke-width="14" fill="none"/>
 <path d="M54 213L145 186 268 204 428 175" stroke="#e0a14b" stroke-width="5" opacity=".8"/>
 <path d="M245 177l24-30 30 22-10 36-36 2z" fill="#687267" stroke="#d9bc82" stroke-width="3"/>
 <rect x="34" y="34" width="150" height="32" rx="5" fill="#07100c" opacity=".84"/><text x="48" y="56" class="tag" fill="#f0bd6a">01 CINEMATIC REALISM</text>
 <text x="24" y="292" class="title">电影级写实</text><text x="24" y="320" class="sub">厚重金属围栏 · 潮湿植被 · 体积光</text>
 <rect x="24" y="344" width="422" height="72" rx="8" fill="#0c1611" stroke="#9d6a38"/><circle cx="52" cy="379" r="18" fill="#d99a44"/><path d="M86 365h90M86 380h146M86 395h64" stroke="#d7e2cf" stroke-width="7" stroke-linecap="round"/><rect x="316" y="360" width="108" height="16" rx="8" fill="#263528"/><rect x="316" y="360" width="78" height="16" rx="8" fill="#e1a153"/>
 <text x="24" y="438" class="small">适合：沉浸、压迫、电影预告片感</text>
</g>

<g transform="translate(565 145)">
 <rect width="470" height="450" rx="18" fill="#20243b" stroke="#6a78c8" stroke-width="2"/>
 <rect x="18" y="18" width="434" height="236" rx="12" fill="#2a3153"/>
 <path d="M18 198L104 133 172 176 244 106 332 165 452 104V254H18Z" fill="#47518a"/>
 <path d="M18 220L94 182 166 205 260 156 338 202 452 162V254H18Z" fill="#1b6b68"/>
 <path d="M50 228l55-42 44 18 80-55 76 49 77-20" fill="none" stroke="#f5c44a" stroke-width="10" stroke-linecap="square"/>
 <path d="M298 180l30-25 28 28-18 34-32-2z" fill="#ef7654" stroke="#1a1730" stroke-width="8"/>
 <rect x="34" y="34" width="140" height="32" rx="3" fill="#13172a"/><text x="48" y="56" class="tag" fill="#91a8ff">02 LOW-POLY PS1</text>
 <text x="24" y="292" class="title">复古低多边形</text><text x="24" y="320" class="sub">硬切面 · 抖动阴影 · 高识别色块</text>
 <rect x="24" y="344" width="422" height="72" rx="4" fill="#171a30" stroke="#626cae"/><path d="M45 365h85M45 387h52M194 360h220M194 389h140" stroke="#8fa0ff" stroke-width="10" stroke-linecap="square"/><circle cx="403" cy="385" r="14" fill="#ee7655"/>
 <text x="24" y="438" class="small">适合：轻量、辨识度、怀旧游戏感</text>
</g>

<g transform="translate(1075 145)">
 <rect width="470" height="450" rx="18" fill="#17343a" stroke="#53c5a6" stroke-width="2"/>
 <rect x="18" y="18" width="434" height="236" rx="16" fill="#6ec3a2"/>
 <circle cx="360" cy="70" r="48" fill="#ffce78"/>
 <path d="M18 202Q100 130 182 204T330 183T452 207V254H18Z" fill="#317f6e"/><path d="M58 215l32-84 28 84M163 215l36-96 27 96M386 215l30-86 25 86" fill="#4ca87f"/>
 <path d="M140 239Q190 198 246 213T352 202" fill="none" stroke="#e9b957" stroke-width="23" opacity=".9"/>
 <path d="M279 185l28-25 29 26-18 35-35-4z" fill="#f58b4f" stroke="#f8e2b7" stroke-width="4"/>
 <rect x="34" y="34" width="170" height="32" rx="16" fill="#1c4e4c"/><text x="48" y="56" class="tag" fill="#d9ffe4">03 THEME-PARK DIORAMA</text>
 <text x="24" y="292" class="title">主题公园手办感</text><text x="24" y="320" class="sub">圆润比例 · 玩具材质 · 明亮可读</text>
 <rect x="24" y="344" width="422" height="72" rx="16" fill="#1f5551" stroke="#67c6a4"/><rect x="42" y="359" width="56" height="42" rx="10" fill="#ef8b4e"/><path d="M122 367h118M122 389h80" stroke="#d5f4d7" stroke-width="10" stroke-linecap="round"/><circle cx="398" cy="380" r="20" fill="#f4cc68"/>
 <text x="24" y="438" class="small">适合：亲和、可玩、移动端清晰</text>
</g>

<g transform="translate(55 645)">
 <rect width="470" height="450" rx="18" fill="#2e261e" stroke="#c49461" stroke-width="2"/>
 <rect x="18" y="18" width="434" height="236" rx="10" fill="#8c795b"/>
 <path d="M18 208L82 162 156 198 224 137 312 184 452 128V254H18Z" fill="#5b6347"/><path d="M38 218l90-40 87 22 92-55 109 43" fill="none" stroke="#d7aa69" stroke-width="7" opacity=".72"/>
 <path d="M285 182l25-26 31 24-12 37-37-2z" fill="#6d5c43" stroke="#29221c" stroke-width="5"/>
 <path d="M40 48h360M40 80h280" stroke="#372d22" stroke-width="2" opacity=".6"/>
 <rect x="34" y="34" width="178" height="32" rx="3" fill="#3a2d21"/><text x="48" y="56" class="tag" fill="#f4d8a3">04 FIELD JOURNAL SURVIVAL</text>
 <text x="24" y="292" class="title">野外调查手册</text><text x="24" y="320" class="sub">泥土、帆布、纸张、手写标记</text>
 <rect x="24" y="344" width="422" height="72" rx="2" fill="#d8c49a" stroke="#6f573d"/><path d="M43 365h76M43 388h142" stroke="#5e4a38" stroke-width="8"/><circle cx="394" cy="381" r="23" fill="none" stroke="#755338" stroke-width="4"/><path d="M394 357v48M370 381h48" stroke="#755338" stroke-width="3"/>
 <text x="24" y="438" class="small">适合：探索、求生、叙事线索</text>
</g>

<g transform="translate(565 645)">
 <rect width="470" height="450" rx="18" fill="#101f2b" stroke="#34e0d1" stroke-width="2"/>
 <rect x="18" y="18" width="434" height="236" rx="10" fill="#091b29"/>
 <rect x="18" y="18" width="434" height="236" rx="10" fill="url(#grid)"/>
 <path d="M46 215L116 140 180 188 250 92 338 168 438 106" fill="none" stroke="#36e2d0" stroke-width="4"/>
 <path d="M46 215L116 140 180 188 250 92 338 168 438 106" fill="none" stroke="#36e2d0" stroke-width="15" opacity=".12" filter="url(#glow)"/>
 <circle cx="292" cy="178" r="34" fill="none" stroke="#ffbe58" stroke-width="4"/><circle cx="292" cy="178" r="8" fill="#ffbe58"/>
 <rect x="34" y="34" width="190" height="32" rx="3" fill="#07131f" stroke="#34e0d1"/><text x="48" y="56" class="tag" fill="#7dfff3">05 BIO-TECH HOLOGRAPHIC</text>
 <text x="24" y="292" class="title">生物科技全息</text><text x="24" y="320" class="sub">扫描线、发光边缘、实验室黑青</text>
 <rect x="24" y="344" width="422" height="72" rx="3" fill="#081722" stroke="#34e0d1"/><path d="M44 364h98M44 387h142" stroke="#34e0d1" stroke-width="7"/><rect x="294" y="360" width="112" height="18" rx="9" fill="#0e4550" stroke="#ffbe58"/><rect x="294" y="360" width="73" height="18" rx="9" fill="#ffbe58"/>
 <text x="24" y="438" class="small">适合：科技、监控、实验事故感</text>
</g>

<g transform="translate(1075 645)">
 <rect width="470" height="450" rx="18" fill="#332a25" stroke="#e7c77c" stroke-width="2"/>
 <rect x="18" y="18" width="434" height="236" rx="10" fill="#58715b"/>
 <path d="M18 207L92 156 169 194 238 114 327 182 452 123V254H18Z" fill="#28423b"/>
 <path d="M22 54L452 210M18 120L420 238" stroke="#f0df9a" stroke-width="8" opacity=".45"/>
 <path d="M280 182l26-29 34 27-14 37-39-3z" fill="#d95745" stroke="#211a1a" stroke-width="7"/>
 <rect x="34" y="34" width="174" height="32" rx="2" fill="#2b2020"/><text x="48" y="56" class="tag" fill="#ffd76f">06 GRAPHIC NOVEL CEL</text>
 <text x="24" y="292" class="title">漫画分镜赛璐璐</text><text x="24" y="320" class="sub">粗黑轮廓 · 平涂阴影 · 红色警报</text>
 <rect x="24" y="344" width="422" height="72" rx="0" fill="#f1dfaa" stroke="#211a1a" stroke-width="4"/><path d="M44 365h122M44 389h92" stroke="#211a1a" stroke-width="9"/><circle cx="396" cy="381" r="20" fill="#d95745" stroke="#211a1a" stroke-width="4"/>
 <text x="24" y="438" class="small">适合：动作、警报、强节奏反馈</text>
</g>

<text x="70" y="1155" class="sub">建议优先试做：03 主题公园手办感（最易读）或 01 电影级写实（最沉浸）</text>
</svg>
